<svg id="SvgjsSvg1001" width="288" height="288" xmlns="http://www.w3.org/2000/svg" version="1.1" xmlns:xlink="http://www.w3.org/1999/xlink" xmlns:svgjs="http://svgjs.com/svgjs"><defs id="SvgjsDefs1002"></defs><g id="SvgjsG1008"><svg xmlns="http://www.w3.org/2000/svg" width="288" height="288" enable-background="new 0 0 32.75 32.75" viewBox="0 0 32.75 32.75"><path d="M32.75,16.377c0,2.209-1.791,4-4,4H12.646l3.754,4.42c1.431,1.684,1.224,4.207-0.46,5.638
		c-0.752,0.64-1.672,0.95-2.587,0.95c-1.134,0-2.26-0.479-3.051-1.41l-9.351-11.01c-1.268-1.492-1.268-3.687,0-5.178l9.351-11.01
		c1.431-1.684,3.954-1.89,5.638-0.459s1.891,3.954,0.46,5.638l-3.754,4.42H28.75C30.959,12.376,32.75,14.167,32.75,16.377z" fill="#ffffff" class="color000 svgShape"></path></svg></g></svg>